<svg xmlns="http://www.w3.org/2000/svg" xmlns:xlink="http://www.w3.org/1999/xlink" width="1200" height="1200" viewBox="0 0 1200 1200"><g transform="translate(600 600) scale(0.69 0.69) rotate(45) translate(-600 -600)" style="fill:#000000"><svg fill="#000000" xmlns="http://www.w3.org/2000/svg" xmlns:xlink="http://www.w3.org/1999/xlink" version="1.1" x="0px" y="0px" viewBox="0 0 90 90" enable-background="new 0 0 90 90" xml:space="preserve"><path d="M57.005,71.872c-2.298-4.049-2.298-6.088-1.669-7.539c0.631-1.448,2.732-5.513,1.479-8.798  c-1.111-2.908-3.56-1.676-3.481-0.604c0.396,5.5-5.974,3.452-5.974,2.592c0-0.863-0.437-31.815-0.492-37.397  c-0.004-0.549,0.014-1.026,0.048-1.445c0.012-3.589,1.931-3.781,2.308-4.779c0.375-0.999-0.645-3.804-1.095-6.308  c-0.452-2.504,1.229-1.396,1.847-3.243c0.615-1.847-0.779-3.216-2.176-3.216s-2.092,0.877-2.756,3.093  c-0.662,2.216-2.374,8.538-3.195,10.754c-0.82,2.216,1.15,0.739,1.232,4.022c0.083,3.284-0.656,30.005-0.656,33.659  c0,3.776-6.376,3.803-5.771-2.75c0.353-3.808-7.036-0.862-3.095,9.646c3.939,10.508-0.903,7.633-2.709,18.308  c-1.806,10.672,11.247,11.008,14.53,11c10.396-0.028,11.712-2.188,13.189-5.118C60.025,80.854,59.305,75.923,57.005,71.872z   M54.416,78.729c-2.984-2.896-6.137-2.269-6.137-2.269s0.154-1.167-0.502-1.167c-0.545,0-5.006-0.014-5.727-0.014  c-0.678,0-0.471,1.23-0.471,1.23s-4.887,0.41-2.854-6.689c1.375-4.801,2.729-6.221,1.601-10.754  c-0.865-3.479,2.112-1.396,2.112-1.396s-0.032,1.273-0.032,1.916c0,0.645,0.176,0.889,2.522,0.932  c2.346,0.041,2.363-0.084,2.363-1.091c0-0.765,6.388,2.595,6.929-3.051c0.211-2.188,1.744-1.483,1.889,1.192  c0.099,1.847-0.41,3.673-1.685,6.197c-0.991,1.967-0.532,3.899,0.349,6.178c0.883,2.277,2.228,4.875,2.998,7.201  C58.542,79.477,57.945,82.146,54.416,78.729z"></path><path d="M48.006,67.686c0,0.476-0.386,0.862-0.861,0.862h-4.426c-0.477,0-0.862-0.388-0.862-0.862c0-0.476,0.386-0.861,0.862-0.861  h4.426C47.62,66.823,48.006,67.209,48.006,67.686z"></path><path d="M48.006,62.639c0,0.476-0.386,0.862-0.861,0.862h-4.426c-0.477,0-0.862-0.388-0.862-0.862c0-0.476,0.386-0.861,0.862-0.861  h4.426C47.62,61.775,48.006,62.162,48.006,62.639z"></path><path d="M47.943,73.348c-0.096,0.469-0.553,0.771-1.019,0.674l-4.335-0.89c-0.466-0.095-0.767-0.554-0.671-1.019  c0.095-0.467,0.552-0.766,1.018-0.672l4.334,0.892C47.738,72.428,48.04,72.885,47.943,73.348z"></path><circle cx="49.962" cy="73.801" r="0.881"></circle><circle cx="56.283" cy="78.033" r="0.881"></circle><circle cx="53.682" cy="75.362" r="0.883"></circle><path d="M44.518,4.564l-0.473,1.601c0,0-1.22,0.113-0.79-1.243C43.686,3.568,44.518,4.564,44.518,4.564z"></path><path d="M45.181,2.373l-0.473,1.601c0,0-1.22,0.113-0.79-1.241C44.35,1.377,45.181,2.373,45.181,2.373z"></path><path d="M43.192,8.947l-0.473,1.601c0,0-1.22,0.112-0.79-1.242C42.361,7.952,43.192,8.947,43.192,8.947z"></path><path d="M43.854,6.755l-0.471,1.601c0,0-1.222,0.113-0.79-1.242C43.024,5.76,43.854,6.755,43.854,6.755z"></path><path d="M41.866,13.33l-0.471,1.601c0,0-1.222,0.113-0.79-1.241C41.035,12.334,41.866,13.33,41.866,13.33z"></path><path d="M42.529,11.138l-0.473,1.601c0,0-1.22,0.113-0.79-1.242C41.698,10.143,42.529,11.138,42.529,11.138z"></path></svg></g></svg>