<svg height='300px' width='300px'  fill="#000000" xmlns="http://www.w3.org/2000/svg" xmlns:xlink="http://www.w3.org/1999/xlink" version="1.1" x="0px" y="0px" viewBox="0 0 100 100" enable-background="new 0 0 100 100" xml:space="preserve"><path d="M85.7,11.6l-0.4,0c-0.3,0-0.4,0-0.6,0.1l-0.5-0.4c0.4-0.5,0.8-1,1.3-1.5c0,0-0.6-0.3-0.9-0.9c-0.2-0.3-0.8-1.3-1.8-2  c0,0,0,0,0,0c0,0,0,0,0,0c0,0,0,0,0,0c0,0,0,0,0,0C81.6,6.3,80.5,6,80.1,6c-0.7,0-1.1-0.5-1.1-0.5c-0.3,0.6-0.6,1.2-0.9,1.8  l-0.5-0.3c0-0.2,0-0.4-0.1-0.6l-0.2-0.4c-0.3-0.7-1-0.7-1.4-0.1l-0.3,0.4c-0.4,0.6-0.1,1.2,0.6,1.2l0.4,0c0.3,0,0.4-0.1,0.6-0.2  l0.6,0.4c-0.4,0.8-0.9,1.5-1.3,2.2l-0.7-0.4c0-0.2,0-0.4-0.1-0.6l-0.2-0.4c-0.3-0.7-1-0.7-1.4-0.1L74,8.8c-0.4,0.6-0.1,1.2,0.6,1.2  l0.4,0c0.3,0,0.4-0.1,0.6-0.2l0.7,0.4c-0.5,0.8-1,1.5-1.4,2.1L74.3,12c0-0.2,0-0.4-0.1-0.6L74,11c-0.3-0.7-1-0.7-1.4-0.1l-0.3,0.4  C72,12,72.3,12.5,73,12.6l0.4,0c0.3,0,0.4-0.1,0.6-0.2l0.6,0.4c-0.6,0.8-1,1.2-1,1.2c0.5,1.3-0.1,2.9-0.1,2.9L50.4,48.5  c-0.7-0.6-4.6-3.8-8.9-3.1c-4.8,0.8-6.2,5.4-6.9,9c-0.8,3.6-2.6,4.3-7.7,5.9c-5.1,1.5-19.3,11-8,24.5c0,0,0,0,0,0c0,0,0,0,0.1,0.1  c0.1,0.1,0.1,0.2,0.2,0.2l0.1,0.1c1.4,1.5,6.8,6.8,13.3,8.7c0,0,0.1,0,0.1,0c16.4,5.3,20-11.2,19.6-16.5c-0.4-5.3-0.4-7.3,2.7-9.3  c3.1-2,6.9-5,5.9-9.8c-0.9-4-4.7-6.4-5.9-7L77,19.1c0,0,0.5-0.6,2.4-0.9c0,0,0.3-0.6,0.9-1.6l0.5,0.4c0,0.2,0,0.4,0.1,0.6L81,18  c0.3,0.7,0.9,0.8,1.4,0.2l0.3-0.4c0.5-0.6,0.2-1.2-0.6-1.3l-0.4,0c-0.3,0-0.4,0-0.6,0.1l-0.5-0.4c0.4-0.6,0.8-1.3,1.4-2.1l0.6,0.4  c0,0.2,0,0.4,0.1,0.6l0.2,0.4c0.3,0.7,0.9,0.8,1.4,0.2l0.3-0.4c0.5-0.6,0.2-1.2-0.6-1.3l-0.4,0c-0.3,0-0.4,0-0.6,0.1l-0.6-0.4  c0.5-0.6,1-1.3,1.5-2l0.5,0.4c0,0.2,0,0.4,0.1,0.6l0.2,0.4c0.3,0.7,0.9,0.8,1.4,0.2l0.3-0.4C86.7,12.2,86.4,11.7,85.7,11.6z   M44.7,56c2.7,0,4.8,2.2,4.8,4.8c0,2.7-2.2,4.8-4.8,4.8c-2.7,0-4.8-2.2-4.8-4.8C39.9,58.2,42.1,56,44.7,56z M42.2,74.8l-0.6,0.9  c-0.2,0.3-0.6,0.3-0.8,0.1l-0.6-0.4c-0.8-0.5-1.9-0.1-2.7-0.3c-1-0.3-3.2-1.9-3.7-2.7c-0.4-0.7-0.4-2-1.2-2.5c0,0,0,0,0,0l-0.5-0.4  c-0.3-0.2-0.3-0.6-0.1-0.8l0.6-0.9c0.2-0.3,0.6-0.3,0.8-0.1l8.7,6.3C42.4,74.2,42.4,74.5,42.2,74.8z M50.9,69  c-0.1,1.2,1.6,6.4-3.4,8.5c0,0-0.6-2.3-4.4-4.4c-2.8-1.6-0.7-4.8,0.4-5.6c0,0,5.8,1.7,8-5.7c0,0,1.7,0.8,1.2,3.8  c-0.1,0.2-0.2,0.9,0.2,1.7C52.9,67.2,51.1,67.7,50.9,69z"></path></svg>